<svg width="46" height="46" viewBox="0 0 46 46" xmlns="http://www.w3.org/2000/svg">
<path d="M23 0C35.694 0 46 10.306 46 23C46 35.694 35.694 46 23 46C10.306 46 0 35.694 0 23C0 10.306 10.306 0 23 0ZM38.6984 27.7981C38.7705 26.7114 38.682 25.6738 38.4304 24.6803C38.1766 23.6851 37.7695 22.7979 37.1994 22.0224C36.6285 21.2454 35.9013 20.6246 35.0156 20.1661C34.1254 19.7017 33.0886 19.4739 31.9037 19.4739C30.8304 19.4739 29.8614 19.6645 28.9823 20.0433C28.1041 20.4244 27.3501 20.9454 26.7138 21.6055C26.0789 22.262 25.5951 23.045 25.2468 23.9523C24.9044 24.8566 24.7295 25.8347 24.7295 26.8819C24.7295 27.9648 24.8977 28.9644 25.2319 29.8672C25.5698 30.7745 26.0439 31.5471 26.6542 32.2005C27.281 32.8518 28.0252 33.3505 28.9161 33.707C29.8078 34.0583 30.8007 34.2369 31.9037 34.2369C33.4868 34.2369 34.8445 33.8745 35.9586 33.1473C37.0862 32.4224 37.9116 31.2188 38.4564 29.533H35.0684C34.9375 29.9662 34.598 30.3837 34.0406 30.7745C33.4779 31.166 32.8081 31.3618 32.0325 31.3618C30.9532 31.3618 30.1204 31.0789 29.5436 30.5162C28.966 29.9535 28.5924 28.9056 28.5924 27.7981H38.6984ZM16.6509 33.8745C17.5189 33.8745 18.365 33.7651 19.18 33.5492C20.0047 33.3327 20.7394 32.9992 21.3802 32.5459C22.0159 32.0963 22.5316 31.5136 22.9104 30.7946C23.2863 30.0838 23.4738 29.2397 23.4738 28.2588C23.4738 27.0485 23.1858 26.017 22.5986 25.1544C22.0143 24.2977 21.1316 23.6956 19.943 23.3532C20.816 22.9394 21.4702 22.4072 21.9153 21.7582C22.3582 21.1076 22.5785 20.2941 22.5785 19.3206C22.5785 18.4208 22.4304 17.6593 22.1364 17.0513C21.8342 16.4342 21.4122 15.9445 20.8733 15.576C20.3255 15.2077 19.6787 14.9389 18.9196 14.7782C18.1566 14.6122 17.3216 14.5326 16.3964 14.5326H7.27734V33.8745H16.6509ZM16.1657 25.2541C17.0819 25.2541 17.827 25.4648 18.3866 25.889C18.9441 26.3185 19.2255 27.027 19.2255 28.0236C19.2255 28.5319 19.1428 28.9532 18.9709 29.2777C18.7997 29.6037 18.5631 29.8613 18.2787 30.0488C17.9929 30.2438 17.6557 30.3763 17.2747 30.4589C16.8995 30.543 16.5006 30.5802 16.0816 30.5802H11.5354V25.2541H16.1657ZM33.9639 23.1574C33.5061 22.652 32.7329 22.3782 31.7883 22.3782C31.1735 22.3782 30.6652 22.4816 30.2573 22.6922C29.8584 22.9006 29.5324 23.1589 29.283 23.464C29.0344 23.7737 28.8663 24.1012 28.7672 24.451C28.6691 24.7918 28.6095 25.1007 28.5924 25.3739H34.8504C34.7588 24.3929 34.4232 23.6673 33.9639 23.1574ZM15.5204 17.8275C15.8978 17.8275 16.2647 17.8544 16.616 17.9228C16.9725 17.9846 17.2806 18.0978 17.553 18.2622C17.827 18.4208 18.045 18.6463 18.2095 18.935C18.368 19.2239 18.4462 19.596 18.4462 20.0456C18.4462 20.8568 18.2095 21.4471 17.7198 21.8051C17.2248 22.1682 16.5996 22.3469 15.8457 22.3469H11.5354V17.8275H15.5204ZM35.6452 17.739V15.8306H27.8049V17.739H35.6452Z"/>
</svg>
