<svg width="46" height="46" viewBox="0 0 46 46" xmlns="http://www.w3.org/2000/svg">
<path d="M22.5411 6.6V31.5376L13.9587 22.9552C13.3339 22.3304 12.3207 22.3304 11.6963 22.9548C11.0715 23.5796 11.0715 24.5932 11.6963 25.218L23.0099 36.5312C23.0843 36.6056 23.1663 36.672 23.2535 36.7304C23.2939 36.7572 23.3375 36.776 23.3795 36.7992C23.4291 36.8256 23.4763 36.856 23.5287 36.8772C23.5827 36.9 23.6387 36.9128 23.6947 36.9288C23.7391 36.942 23.7815 36.9592 23.8271 36.9684C23.9311 36.9892 24.0359 37 24.1411 37L24.1447 36.9996C24.2483 36.9992 24.3523 36.9888 24.4543 36.9684C24.5023 36.9588 24.5467 36.9408 24.5939 36.9268C24.6471 36.9112 24.7011 36.8992 24.7527 36.8776C24.8083 36.8544 24.8587 36.8232 24.9111 36.7944C24.9503 36.7728 24.9903 36.7556 25.0279 36.7308C25.1163 36.6724 25.1987 36.6052 25.2735 36.5304L36.5859 25.2176C37.2107 24.5928 37.2107 23.5796 36.5863 22.9548C35.9615 22.33 34.9483 22.33 34.3231 22.9548L25.7411 31.5372V6.6C25.7411 5.7164 25.0247 5 24.1411 5C23.2575 5 22.5411 5.7164 22.5411 6.6Z"/>
</svg>
