<svg width="46" height="46" viewBox="0 0 46 46" xmlns="http://www.w3.org/2000/svg">
<path d="M44.2308 17.6154C43.7615 17.6154 43.3115 17.8018 42.9797 18.1336C42.6479 18.4653 42.4615 18.9154 42.4615 19.3846V33.5384C42.4615 34.0077 42.2751 34.4577 41.9433 34.7895C41.6115 35.1213 41.1615 35.3077 40.6923 35.3077H5.30769C4.83846 35.3077 4.38845 35.1213 4.05666 34.7895C3.72486 34.4577 3.53846 34.0077 3.53846 33.5384V19.3846C3.53846 18.9154 3.35206 18.4653 3.02027 18.1336C2.68847 17.8018 2.23846 17.6154 1.76923 17.6154C1.3 17.6154 0.849991 17.8018 0.518196 18.1336C0.1864 18.4653 0 18.9154 0 19.3846V33.5384C0.00123883 34.9456 0.561253 36.2948 1.55692 37.2892C2.55135 38.2849 3.90048 38.8449 5.30769 38.8461H40.6923C42.0995 38.8449 43.4486 38.2849 44.4431 37.2892C45.4387 36.2948 45.9988 34.9456 46 33.5384V19.3846C46 18.9154 45.8136 18.4653 45.4818 18.1336C45.15 17.8018 44.7 17.6154 44.2308 17.6154Z"/>
<path d="M21.9385 27.8769C22.2447 28.1066 22.6172 28.2308 23 28.2308C23.3828 28.2308 23.7553 28.1066 24.0616 27.8769L44.9562 12.2015C45.2821 11.9557 45.5131 11.6048 45.6098 11.2082C45.7065 10.8115 45.6631 10.3937 45.4869 10.0254C45.2234 9.48103 44.8706 8.98467 44.4431 8.55692C43.4487 7.56125 42.0995 7.00124 40.6923 7H5.3077C3.90049 7.00124 2.55136 7.56125 1.55693 8.55692C1.12941 8.98467 0.776573 9.48103 0.513086 10.0254C0.336899 10.3937 0.293495 10.8115 0.390233 11.2082C0.48697 11.6048 0.717895 11.9557 1.04385 12.2015L21.9385 27.8769ZM5.3077 10.5385H40.6923C40.8564 10.5126 41.0236 10.5126 41.1877 10.5385L23 24.25L4.81232 10.5385C4.97643 10.5126 5.14358 10.5126 5.3077 10.5385Z"/>
</svg>
