<svg width="46" height="46" viewBox="0 0 46 46" xmlns="http://www.w3.org/2000/svg">
<g clip-path="url(#clip0_16_44)">
<path d="M22.9986 1.33301C10.2982 1.33301 0 11.6708 0 24.4257C0 34.6262 6.5895 43.2811 15.7306 46.335C16.8806 46.5471 17.3003 45.8341 17.3003 45.2224C17.3003 44.674 17.2802 43.2221 17.2687 41.2955C10.8704 42.691 9.52056 38.1999 9.52056 38.1999C8.4755 35.5329 6.96756 34.8228 6.96756 34.8228C4.87888 33.3896 7.12569 33.4187 7.12569 33.4187C9.43287 33.5819 10.6476 35.7985 10.6476 35.7985C12.7003 39.3272 16.031 38.3084 17.342 37.7165C17.5504 36.2244 18.1456 35.2066 18.8025 34.6295C13.6951 34.0466 8.326 32.0664 8.326 23.2182C8.326 20.6969 9.22156 18.6362 10.6936 17.0212C10.4564 16.4368 9.66719 14.0901 10.9178 10.9107C10.9178 10.9107 12.8498 10.2901 17.2428 13.2776C19.0785 12.7651 21.045 12.5099 23.0014 12.4995C24.955 12.5096 26.9229 12.7651 28.7601 13.2776C33.1502 10.2901 35.0779 10.9107 35.0779 10.9107C36.3328 14.0901 35.5436 16.4368 35.3064 17.0212C36.7813 18.6362 37.6711 20.6969 37.6711 23.2182C37.6711 32.088 32.2934 34.0408 27.1702 34.6122C27.9953 35.3252 28.7313 36.7336 28.7313 38.8884C28.7313 41.9754 28.7026 44.4648 28.7026 45.2228C28.7026 45.8405 29.1166 46.5593 30.2838 46.3325C39.4162 43.2724 46 34.6234 46 24.4257C46 11.6708 35.7017 1.33301 22.9986 1.33301Z"/>
</g>
<defs>
<clipPath id="clip0_16_44">
<rect width="46" height="46" fill="white"/>
</clipPath>
</defs>
</svg>
