<svg width="46" height="46" viewBox="0 0 46 46" xmlns="http://www.w3.org/2000/svg">
<path d="M23 0C35.694 0 46 10.306 46 23C46 35.694 35.694 46 23 46C10.306 46 0 35.694 0 23C0 10.306 10.306 0 23 0ZM15.8092 35.9259V17.9643H9.8378V35.9259H15.8092ZM37.3375 35.9259V25.6257C37.3375 20.1085 34.3918 17.5419 30.4637 17.5419C27.2962 17.5419 25.8774 19.2839 25.083 20.5074V17.9643H19.1132C19.1923 19.6495 19.1132 35.9259 19.1132 35.9259H25.0829V25.8949C25.0829 25.358 25.1216 24.8212 25.2798 24.4375C25.7106 23.3652 26.6937 22.2544 28.343 22.2544C30.5023 22.2544 31.3674 23.9021 31.3674 26.3157V35.9259H37.3375ZM12.8638 9.30332C10.8208 9.30332 9.48597 10.6465 9.48597 12.407C9.48597 14.1304 10.7802 15.5105 12.7848 15.5105H12.8233C14.9054 15.5105 16.2014 14.1304 16.2014 12.407C16.1628 10.6465 14.9055 9.30332 12.8638 9.30332Z"/>
</svg>
