<svg width="46" height="46" viewBox="0 0 46 46" xmlns="http://www.w3.org/2000/svg">
<path d="M12.8179 35.7277L32.6552 15.8904V29.5446C32.6552 30.5386 33.4612 31.3446 34.4546 31.3446C35.4486 31.3446 36.2549 30.5383 36.2549 29.5443L36.2546 11.5452C36.2546 11.4268 36.2422 11.3087 36.2193 11.1929C36.2085 11.1395 36.1887 11.0898 36.1738 11.038C36.1553 10.9775 36.142 10.9158 36.1171 10.8572C36.0923 10.7961 36.058 10.7414 36.0261 10.6841C36.0013 10.6383 35.9813 10.5909 35.9523 10.5473C35.8861 10.448 35.8114 10.3561 35.7277 10.2724L35.7245 10.2698C35.6418 10.1877 35.5508 10.1133 35.4534 10.0484C35.4076 10.0178 35.3579 9.99683 35.3093 9.97042C35.2545 9.94051 35.202 9.90711 35.1438 9.88324C35.0811 9.85747 35.0162 9.84219 34.9516 9.82342C34.9032 9.80942 34.8577 9.79128 34.8081 9.7811C34.6913 9.75723 34.5723 9.74514 34.4533 9.74514L16.4555 9.74546C15.4614 9.74546 14.6555 10.5514 14.6551 11.5452C14.6551 12.5392 15.4611 13.3452 16.4555 13.3455L30.1094 13.3452L10.2724 33.1822C9.56948 33.885 9.56948 35.0248 10.2724 35.7277C10.9753 36.4306 12.115 36.4306 12.8179 35.7277Z"/>
</svg>
