<svg width="46" height="41" viewBox="0 0 46 41" xmlns="http://www.w3.org/2000/svg">
<path d="M44.6566 0.886914C44.1303 0.444831 43.4936 0.15438 42.8148 0.046724C42.136 -0.0609323 41.4406 0.0182694 40.8034 0.275831L1.91473 15.8415C1.34785 16.077 0.863433 16.4751 0.522652 16.9857C0.181871 17.4962 0 18.0963 0 18.7102C0 19.324 0.181871 19.9241 0.522652 20.4347C0.863433 20.9452 1.34785 21.3434 1.91473 21.5789L4.42696 22.6143C4.84118 22.7895 5.308 22.7932 5.72492 22.6245C6.14184 22.4559 6.47478 22.1286 6.65063 21.7147C6.73689 21.5085 6.78161 21.2874 6.7822 21.0639C6.7828 20.8405 6.73927 20.6191 6.65411 20.4125C6.56894 20.2059 6.44383 20.0181 6.28593 19.86C6.12804 19.7019 5.94047 19.5765 5.734 19.491L3.8668 18.7272L42.0765 3.45007C42.1352 3.41405 42.2028 3.39499 42.2717 3.39499C42.3406 3.39499 42.4082 3.41405 42.4669 3.45007C42.5223 3.49711 42.5641 3.55813 42.588 3.62677C42.6119 3.69542 42.6169 3.76921 42.6027 3.84048L35.6262 36.3976C35.6033 36.5136 35.5505 36.6216 35.4731 36.7109C35.3957 36.8002 35.2963 36.8678 35.1848 36.9069C35.0754 36.9503 34.9564 36.9638 34.84 36.9459C34.7236 36.928 34.6141 36.8793 34.5228 36.805L20.9432 26.2129L34.2343 12.7861C34.5182 12.4915 34.6862 12.1043 34.7073 11.6957C34.7284 11.2871 34.6012 10.8847 34.3492 10.5624C34.0972 10.2401 33.7372 10.0197 33.3356 9.94173C32.9339 9.86376 32.5177 9.93347 32.1634 10.138L12.6766 21.6807C12.4602 21.7785 12.2667 21.9207 12.1086 22.098C11.9506 22.2753 11.8315 22.4838 11.759 22.71C11.6866 22.9362 11.6625 23.175 11.6882 23.4112C11.7139 23.6473 11.7888 23.8754 11.9082 24.0807C12.0276 24.286 12.1887 24.464 12.3812 24.6032C12.5737 24.7423 12.7932 24.8395 13.0256 24.8885C13.2581 24.9375 13.4982 24.9371 13.7304 24.8875C13.9627 24.8379 14.182 24.74 14.374 24.6003L22.5727 19.7626L18.5837 23.8195C18.2188 24.1624 17.9342 24.5817 17.7504 25.0475C17.5666 25.5133 17.4882 26.014 17.5206 26.5137C17.553 27.0133 17.6956 27.4996 17.9381 27.9377C18.1806 28.3758 18.517 28.7549 18.9232 29.0477L32.5028 39.487C33.2176 40.0386 34.0953 40.3371 34.9981 40.3357C35.4789 40.3323 35.9554 40.2461 36.407 40.0811C37.0554 39.8483 37.6332 39.4529 38.085 38.9328C38.5368 38.4127 38.8474 37.7852 38.9871 37.1106L45.9127 4.58736C46.0597 3.91464 46.0205 3.21456 45.7991 2.56251C45.5778 1.91046 45.1828 1.33113 44.6566 0.886914Z"/>
</svg>
