<svg xmlns="http://www.w3.org/2000/svg" viewBox="0 0 299.9 42.8">
    <path fill="#353535" d="M26.9,37.5h-5.8V21.4c0-0.8-0.2-1.3-0.6-1.7c-0.4-0.4-1-0.6-1.8-0.6H8.2v-5.8h10.5c0.6,0,1.1,0.1,1.8,0.2
	c0.6,0.1,1.2,0.3,1.8,0.6c0.6,0.3,1.2,0.6,1.8,1.1c0.6,0.4,1,0.9,1.5,1.5c0.4,0.6,0.8,1.3,1,2.1c0.3,0.8,0.4,1.7,0.4,2.7V37.5z
	 M5.8,37.5H0V2.9h5.8V37.5z M57.3,29.4c0,0.8-0.1,1.7-0.4,2.6c-0.3,0.9-0.7,1.8-1.4,2.6c-0.6,0.8-1.5,1.5-2.5,2
	c-1,0.5-2.3,0.8-3.7,0.8H38.7c-0.8,0-1.7-0.1-2.6-0.4c-0.9-0.3-1.8-0.7-2.6-1.4c-0.8-0.6-1.5-1.5-2-2.5c-0.5-1-0.8-2.3-0.8-3.8
	c0-0.8,0.1-1.7,0.4-2.6c0.3-0.9,0.7-1.8,1.4-2.6c0.6-0.8,1.5-1.5,2.5-2c1-0.5,2.3-0.8,3.8-0.8h10.5V27H38.7c-0.8,0-1.4,0.2-1.8,0.7
	c-0.4,0.5-0.7,1.1-0.7,1.8c0,0.8,0.2,1.4,0.7,1.8c0.5,0.4,1.1,0.6,1.8,0.6h10.5c0.8,0,1.4-0.2,1.8-0.7c0.4-0.5,0.7-1.1,0.7-1.8v-8.2
	c0-0.8-0.2-1.4-0.7-1.8c-0.5-0.4-1.1-0.7-1.8-0.7H36.5v-5.5h12.8c0.8,0,1.7,0.1,2.6,0.4c0.9,0.3,1.8,0.7,2.6,1.4
	c0.8,0.6,1.5,1.5,2,2.5c0.5,1,0.8,2.3,0.8,3.7V29.4z M84,37.5h-5.8V21.4c0-0.8-0.2-1.3-0.6-1.7c-0.4-0.4-1-0.6-1.8-0.6h-7.6v18.4
	h-5.8V16.1c0-0.4,0.1-0.8,0.2-1.1c0.1-0.4,0.4-0.7,0.6-0.9c0.3-0.3,0.6-0.5,0.9-0.6c0.4-0.1,0.7-0.2,1.1-0.2h10.5
	c0.8,0,1.7,0.1,2.6,0.4c0.9,0.3,1.8,0.7,2.7,1.4v-1.8h7.9c0.6,0,1.1,0.1,1.8,0.2c0.6,0.1,1.2,0.3,1.8,0.6c0.6,0.3,1.2,0.6,1.8,1.1
	c0.6,0.4,1,0.9,1.5,1.5c0.4,0.6,0.8,1.3,1,2.1c0.3,0.8,0.4,1.7,0.4,2.7v16.1h-5.8V21.4c0-0.8-0.2-1.3-0.6-1.7
	c-0.4-0.4-1-0.6-1.8-0.6h-5.3c0.2,0.7,0.3,1.5,0.3,2.3V37.5z M126,29.3c0,1-0.1,1.9-0.4,2.7c-0.3,0.8-0.6,1.5-1,2.1
	c-0.4,0.6-0.9,1.1-1.5,1.5c-0.6,0.4-1.1,0.8-1.8,1c-0.6,0.3-1.2,0.5-1.8,0.6c-0.6,0.1-1.2,0.2-1.8,0.2H102v-5.8h15.8
	c0.8,0,1.4-0.2,1.8-0.6c0.4-0.4,0.6-1,0.6-1.8c-0.1-1.6-0.9-2.3-2.4-2.3h-9.1c-1.3,0-2.4-0.2-3.3-0.7c-0.9-0.4-1.6-1-2.2-1.7
	c-0.6-0.7-1-1.4-1.2-2.2c-0.2-0.8-0.4-1.5-0.4-2.2c0-1.3,0.2-2.4,0.7-3.3c0.5-0.9,1-1.6,1.8-2.2c0.7-0.6,1.5-1,2.3-1.2
	c0.8-0.3,1.6-0.4,2.3-0.4h14.4V19h-14.3c-0.3,0-0.5,0-0.7,0.1c-0.2,0.1-0.3,0.1-0.4,0.3c-0.1,0.1-0.1,0.2-0.1,0.4c0,0.1,0,0.2,0,0.4
	c0,0.2,0.1,0.4,0.1,0.6c0.1,0.1,0.2,0.2,0.3,0.3c0.1,0.1,0.2,0.1,0.4,0.1c0.1,0,0.3,0,0.4,0h9.1c1.5,0,2.8,0.3,3.8,0.8
	c1,0.5,1.9,1.2,2.5,2c0.6,0.8,1.1,1.7,1.4,2.7C125.8,27.6,126,28.5,126,29.3z M151.8,19h-10.2v18.4h-5.9V19h-7.6v-5.8h7.6V5.3h5.9
	v7.9h10.2V19z M181.6,21.2c0,0.8-0.1,1.7-0.4,2.6c-0.3,0.9-0.7,1.8-1.4,2.6c-0.6,0.8-1.5,1.5-2.5,2c-1,0.5-2.3,0.8-3.7,0.8h-10.5
	v-5.5h10.5c0.8,0,1.4-0.2,1.8-0.7c0.4-0.5,0.7-1.1,0.7-1.8c0-0.8-0.2-1.4-0.7-1.8c-0.5-0.4-1.1-0.7-1.8-0.7h-10.5
	c-0.8,0-1.4,0.2-1.8,0.7c-0.4,0.5-0.7,1.1-0.7,1.8v8.2c0,0.8,0.2,1.4,0.7,1.8c0.5,0.4,1.1,0.7,1.8,0.7h10.5v5.6h-10.5
	c-0.8,0-1.7-0.1-2.6-0.4c-0.9-0.3-1.8-0.7-2.6-1.4c-0.8-0.6-1.5-1.5-2-2.5c-0.5-1-0.8-2.3-0.8-3.8v-8.2c0-0.8,0.1-1.7,0.4-2.6
	c0.3-0.9,0.7-1.8,1.4-2.6c0.6-0.8,1.5-1.5,2.5-2c1-0.5,2.3-0.8,3.8-0.8h10.5c0.8,0,1.7,0.1,2.6,0.4c0.9,0.3,1.8,0.7,2.6,1.4
	c0.8,0.6,1.5,1.5,2,2.5C181.4,18.5,181.6,19.8,181.6,21.2z M206.8,19h-13.1c-0.8,0-1.4,0.2-1.8,0.6c-0.4,0.4-0.6,1-0.6,1.7v16.1
	h-5.8V21.4c0-1,0.1-1.9,0.4-2.7c0.3-0.8,0.6-1.5,1-2.1c0.4-0.6,0.9-1.1,1.5-1.5c0.6-0.4,1.1-0.8,1.7-1.1c0.6-0.3,1.2-0.5,1.8-0.6
	c0.6-0.1,1.2-0.2,1.8-0.2h13.2V19z M216.9,42.8H211V0h5.9V42.8z M247.7,29.4c0,0.8-0.1,1.7-0.4,2.6c-0.3,0.9-0.7,1.8-1.4,2.6
	c-0.6,0.8-1.5,1.5-2.5,2c-1,0.5-2.3,0.8-3.7,0.8h-10.5c-0.8,0-1.7-0.1-2.6-0.4c-0.9-0.3-1.8-0.7-2.6-1.4c-0.8-0.6-1.5-1.5-2-2.5
	c-0.5-1-0.8-2.3-0.8-3.8c0-0.8,0.1-1.7,0.4-2.6c0.3-0.9,0.7-1.8,1.4-2.6c0.6-0.8,1.5-1.5,2.5-2c1-0.5,2.3-0.8,3.8-0.8h10.5V27h-10.5
	c-0.8,0-1.4,0.2-1.8,0.7c-0.4,0.5-0.7,1.1-0.7,1.8c0,0.8,0.2,1.4,0.7,1.8c0.5,0.4,1.1,0.6,1.8,0.6h10.5c0.8,0,1.4-0.2,1.8-0.7
	c0.4-0.5,0.7-1.1,0.7-1.8v-8.2c0-0.8-0.2-1.4-0.7-1.8c-0.5-0.4-1.1-0.7-1.8-0.7h-12.8v-5.5h12.8c0.8,0,1.7,0.1,2.6,0.4
	c0.9,0.3,1.8,0.7,2.6,1.4c0.8,0.6,1.5,1.5,2,2.5c0.5,1,0.8,2.3,0.8,3.7V29.4z M274,19h-13.1c-0.8,0-1.4,0.2-1.8,0.6
	c-0.4,0.4-0.6,1-0.6,1.7v16.1h-5.8V21.4c0-1,0.1-1.9,0.4-2.7c0.3-0.8,0.6-1.5,1-2.1c0.4-0.6,0.9-1.1,1.5-1.5
	c0.6-0.4,1.1-0.8,1.7-1.1c0.6-0.3,1.2-0.5,1.8-0.6c0.6-0.1,1.2-0.2,1.8-0.2H274V19z M299.9,19h-10.2v18.4h-5.9V19h-7.6v-5.8h7.6V5.3
	h5.9v7.9h10.2V19z"/>
</svg>
