<svg width="68" height="48" viewBox="0 0 68 48" fill="none" xmlns="http://www.w3.org/2000/svg">
<path d="M27.1523 42H21.8203V27.2959C21.8203 26.5986 21.6426 26.0723 21.2871 25.7168C20.9316 25.3477 20.3984 25.1631 19.6875 25.1631H10.0693V19.8311H19.6875C20.1934 19.8311 20.7266 19.8926 21.2871 20.0156C21.8477 20.125 22.4014 20.3027 22.9482 20.5488C23.5088 20.7949 24.042 21.1162 24.5479 21.5127C25.0537 21.8955 25.498 22.3672 25.8809 22.9277C26.2637 23.4746 26.5713 24.1104 26.8037 24.835C27.0361 25.5596 27.1523 26.3799 27.1523 27.2959V42ZM7.91602 42H2.58398V10.459H7.91602V42ZM37.6729 46.8398H32.3203V7.77246H37.6729V46.8398ZM65.8711 34.6582C65.8711 35.3965 65.7412 36.1963 65.4814 37.0576C65.2217 37.9053 64.7979 38.6982 64.21 39.4365C63.6357 40.1611 62.877 40.7695 61.9336 41.2617C61.0039 41.7539 59.8691 42 58.5293 42H48.9111C48.1729 42 47.373 41.8701 46.5117 41.6104C45.6641 41.3506 44.8711 40.9336 44.1328 40.3594C43.4082 39.7715 42.7998 39.0127 42.3076 38.083C41.8154 37.1396 41.5693 35.998 41.5693 34.6582C41.5693 33.9199 41.6992 33.1201 41.959 32.2588C42.2188 31.3975 42.6357 30.6045 43.21 29.8799C43.7979 29.1416 44.5566 28.5264 45.4863 28.0342C46.4297 27.542 47.5713 27.2959 48.9111 27.2959H58.5293V32.3818H48.9111C48.1865 32.3818 47.626 32.6074 47.2295 33.0586C46.833 33.4961 46.6348 34.043 46.6348 34.6992C46.6348 35.3965 46.8604 35.9434 47.3115 36.3398C47.7764 36.7227 48.3232 36.9141 48.9521 36.9141H58.5293C59.2539 36.9141 59.8145 36.6953 60.2109 36.2578C60.6074 35.8203 60.8057 35.2734 60.8057 34.6172V27.1729C60.8057 26.4756 60.5869 25.9219 60.1494 25.5117C59.7256 25.1016 59.1855 24.8965 58.5293 24.8965H46.8193V19.8311H58.5293C59.2676 19.8311 60.0605 19.9609 60.9082 20.2207C61.7695 20.4805 62.5625 20.9043 63.2871 21.4922C64.0254 22.0664 64.6406 22.8252 65.1328 23.7686C65.625 24.6982 65.8711 25.833 65.8711 27.1729V34.6582Z" fill="#353535"/>
</svg>
